<?xml version="1.0" encoding="UTF-8"?>
<svg id="Layer_2" data-name="Layer 2" xmlns="http://www.w3.org/2000/svg" width="550" height="550" viewBox="0 0 550 550">
  <g id="Layer_2-2" data-name="Layer 2">
    <path d="m73.58,149.99c5.68.11,11.23-.42,16.56-1.52,30.24-6.2,61.57,3.24,83.39,25.06h0c-21.83-21.83-31.26-53.15-25.06-83.39,1.09-5.34,1.62-10.88,1.52-16.56C149.26,34.36,115.64.74,76.42.01c-21.27-.39-40.57,8.07-54.46,21.95C8.08,35.85-.38,55.15.01,76.42c.73,39.22,34.34,72.84,73.56,73.56Z"/>
    <path d="m375.74,375.74c15.53,15.53,24.26,36.59,24.26,58.56v115.7h150v-150h-115.7c-21.96,0-43.03-8.73-58.56-24.26Z"/>
    <path d="m349.74,305.11c.17-1.68.26-3.39.26-5.11v-50c0-27.61-22.39-50-50-50h-50c-1.25,0-2.48.05-3.7.14-27.01,1.98-53.61-7.45-72.76-26.6,19.15,19.15,28.58,45.75,26.6,72.76-.09,1.22-.14,2.46-.14,3.7v50c0,27.61,22.39,50,50,50h50c1.73,0,3.43-.09,5.11-.26,25.24-2.56,50.37,5.74,68.31,23.68-17.94-17.94-26.24-43.07-23.68-68.31Z"/>
    <path d="m348.47,90.14c1.09-5.34,1.62-10.88,1.52-16.56C349.24,33.48,316.52.76,276.42.01c-21.27-.39-40.57,8.07-54.46,21.95-13.88,13.88-22.35,33.18-21.95,54.46.74,40.1,33.46,72.82,73.56,73.56,5.68.11,11.23-.42,16.56-1.52,30.24-6.2,61.57,3.24,83.39,25.06h0c-21.83-21.83-31.26-53.15-25.06-83.39Z"/>
    <path d="m500,200h-50c-1.25,0-2.48.05-3.7.14-27.01,1.98-53.61-7.45-72.76-26.6,19.15,19.15,28.58,45.75,26.6,72.76-.09,1.22-.14,2.46-.14,3.7v50c0,27.61,22.39,50,50,50h50c13.81,0,26.31-5.6,35.36-14.64,9.05-9.05,14.64-21.55,14.64-35.36v-50c0-27.61-22.39-50-50-50Z"/>
    <path d="m148.47,290.14c1.09-5.34,1.62-10.88,1.52-16.56-.74-40.1-33.46-72.82-73.56-73.56-21.27-.39-40.57,8.07-54.46,21.95C8.08,235.85-.38,255.15.01,276.42c.74,40.1,33.46,72.82,73.56,73.56,5.68.11,11.23-.42,16.56-1.52,30.24-6.2,61.57,3.24,83.39,25.06h0c-21.83-21.83-31.26-53.15-25.06-83.39Z"/>
    <path d="m300,400h-50c-1.25,0-2.48.05-3.7.14-27.01,1.98-53.61-7.45-72.76-26.6,19.15,19.15,28.58,45.75,26.6,72.76-.09,1.22-.14,2.46-.14,3.7v50c0,27.61,22.39,50,50,50h50c13.81,0,26.31-5.6,35.36-14.64,9.05-9.05,14.64-21.55,14.64-35.36v-50c0-27.61-22.39-50-50-50Z"/>
  </g>
</svg>