<?xml version="1.0" encoding="utf-8"?>
<!-- Generator: Adobe Illustrator 28.2.0, SVG Export Plug-In . SVG Version: 6.00 Build 0)  -->
<svg version="1.1" id="Layer_2_00000134232882854535154450000012673534522927977346_"
	 xmlns="http://www.w3.org/2000/svg" xmlns:xlink="http://www.w3.org/1999/xlink" x="0px" y="0px" viewBox="0 0 320 132"
	 style="enable-background:new 0 0 320 132;" xml:space="preserve">
<g id="Layer_2-2">
	<g>
		<path d="M177.9,59.3c-1.7,0-3.4-0.1-5-0.5c-9.1-1.9-18.6,1-25.1,7.6l0,0c6.6-6.6,9.4-16,7.6-25.1c-0.3-1.6-0.5-3.3-0.5-5
			c0.2-11.8,10.3-22,22.2-22.2c6.4-0.1,12.2,2.4,16.4,6.6c4.2,4.2,6.7,10,6.6,16.4C199.8,49,189.7,59.1,177.9,59.3L177.9,59.3
			L177.9,59.3z"/>
		<path d="M147.7,66.4c-4.6,4.6-7.2,10.8-7.2,17.3v34.2H20V73.6h110.4C136.9,73.6,143.1,71,147.7,66.4L147.7,66.4z"/>
	</g>
</g>
</svg>
