<?xml version="1.0" encoding="UTF-8"?>
<svg id="Layer_2" data-name="Layer 2" xmlns="http://www.w3.org/2000/svg" viewBox="0 0 316.73 182.65">
  <defs>
    <style>
      .cls-1 {
        stroke-width: 0px;
      }
    </style>
  </defs>
  <g id="Layer_2-2" data-name="Layer 2">
    <g>
      <path class="cls-1" d="M277.78,79.55c-3.02.05-5.98-.21-8.79-.83-16.01-3.28-32.65,1.72-44.24,13.31h0c11.59-11.59,16.58-28.18,13.31-44.24-.57-2.81-.88-5.77-.83-8.79C237.59,18.2,255.42.37,276.22,0c11.28-.21,21.52,4.26,28.85,11.65,7.38,7.38,11.85,17.62,11.65,28.85-.31,20.85-18.14,38.68-38.94,39.04h0Z"/>
      <path class="cls-1" d="M224.75,92.03c-8.06,8.06-12.63,19.03-12.63,30.47v60.15H0v-77.98h194.28c11.44,0,22.41-4.52,30.47-12.63Z"/>
    </g>
  </g>
</svg>